<?xml version="1.0" encoding="iso-8859-1"?>
<!-- Generator: Adobe Illustrator 16.0.0, SVG Export Plug-In . SVG Version: 6.00 Build 0)  -->
<!DOCTYPE svg PUBLIC "-//W3C//DTD SVG 1.1//EN" "http://www.w3.org/Graphics/SVG/1.1/DTD/svg11.dtd">
<svg version="1.1" id="Capa_1" xmlns="http://www.w3.org/2000/svg" xmlns:xlink="http://www.w3.org/1999/xlink" x="0px" y="0px"
	 width="612px" height="612px" viewBox="0 0 612 612" style="enable-background:new 0 0 612 612;" xml:space="preserve">
<g>
	<g id="_x38__33_">
		<g>
			<path d="M267.75,516.375c-21.133,0-38.25,17.117-38.25,38.25c0,21.114,17.117,38.25,38.25,38.25S306,575.739,306,554.625
				C306,533.492,288.883,516.375,267.75,516.375z M190.657,172.125l-47.717-153H19.125C8.568,19.125,0,27.693,0,38.25
				s8.568,19.125,19.125,19.125h95.625l38.441,114.75H153l38.25,229.5c0,42.247,34.253,76.5,76.5,76.5h210.375
				c42.247,0,76.5-34.253,76.5-76.5L612,172.125H190.657z M459,516.375c-21.133,0-38.25,17.117-38.25,38.25
				c0,21.114,17.117,38.25,38.25,38.25s38.25-17.136,38.25-38.25C497.25,533.492,480.133,516.375,459,516.375z"/>
		</g>
	</g>
</g>
<g>
</g>
<g>
</g>
<g>
</g>
<g>
</g>
<g>
</g>
<g>
</g>
<g>
</g>
<g>
</g>
<g>
</g>
<g>
</g>
<g>
</g>
<g>
</g>
<g>
</g>
<g>
</g>
<g>
</g>
</svg>
